<svg fill="#000000" xmlns="http://www.w3.org/2000/svg" viewBox="0 0 24 24" width="24px" height="24px"><path d="M3 18c0 1.657 1.343 3 3 3h9c.552 0 1-.448 1-1v0c0-.552-.448-1-1-1H6c-.552 0-1-.448-1-1V8H3V18zM21 6c0-1.657-1.343-3-3-3H9C8.448 3 8 3.448 8 4v0c0 .552.448 1 1 1h9c.552 0 1 .448 1 1v10h2V6z"/><path d="M3.293 4.293l-3 3c-.286.286-.371.715-.217 1.09C.231 8.757.596 9 1 9h6c.404 0 .769-.243.924-.617C7.975 8.259 8 8.129 8 8c0-.26-.102-.516-.293-.707l-3-3C4.316 3.902 3.683 3.902 3.293 4.293zM20.707 19.707l3-3c.286-.286.371-.715.217-1.09C23.769 15.243 23.404 15 23 15h-6c-.404 0-.769.243-.924.617C16.025 15.741 16 15.871 16 16c0 .26.102.516.293.707l3 3C19.684 20.098 20.317 20.098 20.707 19.707z"/></svg>